<?xml version="1.0" encoding="UTF-8" standalone="no"?>
<svg
   xmlns:dc="http://purl.org/dc/elements/1.1/"
   xmlns:cc="http://creativecommons.org/ns#"
   xmlns:rdf="http://www.w3.org/1999/02/22-rdf-syntax-ns#"
   xmlns:svg="http://www.w3.org/2000/svg"
   xmlns="http://www.w3.org/2000/svg"
   version="1.1"
   id="svg2"
   viewBox="0 0 90 20"
   height="20"
   width="90">
  <defs
     id="defs4" />
  <metadata
     id="metadata7">
    <rdf:RDF>
      <cc:Work
         rdf:about="">
        <dc:format>image/svg+xml</dc:format>
        <dc:type
           rdf:resource="http://purl.org/dc/dcmitype/StillImage" />
        <dc:title></dc:title>
      </cc:Work>
    </rdf:RDF>
  </metadata>
  <g
     transform="translate(0,-1032.3622)"
     id="layer1">
    <path
       id="path4"
       style="fill:#ffffff;fill-rule:evenodd"
       d="m 40.866968,1035.6619 -6.758349,9.1258 c -0.552285,0.7101 -0.894607,0.052 -0.894607,0 -0.683154,-3.1557 -1.366919,-6.3119 -2.050819,-9.4409 l -4.02363,14.1218 c -0.210165,0.736 -0.6839,1.9458 -1.288505,2.4453 -1.683487,1.3413 -3.707807,-0.5516 -4.02363,-2.7345 l 0.420127,-0.1051 c 0.34239,2.025 2.051631,2.761 2.735328,0.2893 l 4.339656,-15.5689 c 0.157166,-0.4995 0.157166,-0.736 -0.07936,-0.7102 -2.182976,0.2107 -4.496756,1.6835 -3.970767,4.1552 0.394373,1.8406 -1.025477,1.6041 -1.289114,0.921 -0.89332,-2.5517 1.31541,-5.733 5.890783,-5.733 1.657191,0 1.657191,0.5517 1.920016,1.8143 l 1.998701,9.7566 c 1.183253,-1.6042 6.153811,-8.5998 7.705887,-10.5983 0.709449,-0.8939 2.47169,-0.4472 2.155867,0.6052 -0.157913,0.578 -2.944884,10.3875 -3.39212,11.9918 -0.42094,1.4463 -1.998565,5.8645 0.262961,5.2592 0.893929,-0.2366 1.629946,-1.1041 2.235094,-1.7879 l 0.289526,0.473 c -0.894674,1.0255 -2.13018,2.3146 -3.602893,2.3938 -3.024652,0.1573 -2.446005,-3.2091 -2.130182,-4.313 1.15689,-4.1289 2.313847,-8.2582 3.550032,-12.3605 z" />
    <path
       id="path6"
       style="fill:#ffffff;fill-rule:evenodd"
       d="m 45.340341,1050.9674 c 0.683765,0.6839 1.945703,0.105 2.813878,-1.5249 0.473193,-0.8947 0.789016,-2.0514 1.104094,-3.1825 0.868175,-2.972 1.157499,-6.0488 -0.315078,-5.7588 -2.971993,0.5518 -5.443683,8.5991 -3.602894,10.4662 z m 7.626524,-9.7565 c -0.131411,0.3678 -0.237274,0.7623 -0.315823,1.1303 -0.552352,1.92 -1.07834,3.8665 -1.604193,5.7865 -0.420871,1.6036 -0.6574,3.8131 0.788881,3.2342 0.867566,-0.3416 1.630624,-1.2097 2.261526,-1.8937 l 0.263773,0.4995 c -0.894675,0.9997 -2.130926,2.3146 -3.57714,2.3938 -1.025342,0.052 -1.945702,-0.027 -2.498054,-1.7621 -0.053,-0.1314 -0.0265,-0.053 -0.07936,-0.2107 -0.762449,1.2097 -2.182366,2.1565 -3.523531,1.92 -0.946724,-0.1579 -1.57783,-0.8418 -1.919949,-1.8143 -0.05225,-0.1323 -0.07862,-0.263 -0.131615,-0.3945 -1.025342,-3.8399 1.709241,-11.2557 5.838123,-10.809 1.183186,0.1057 2.28789,1.1047 1.972202,2.8931 l 0.105659,-0.3423 0.315077,-1.1303 c 0.447439,-1.6572 2.393752,-0.5524 2.104427,0.4995 z" />
    <path
       id="path8"
       style="fill:#ffffff;fill-rule:evenodd"
       d="m 62.829771,1041.3686 c -0.736017,2.4989 -1.788604,5.5751 -2.182976,8.021 -0.210165,1.2361 -0.15737,2.4982 1.131135,1.9987 0.868176,-0.3682 1.604126,-1.2363 2.235027,-1.9201 l 0.289527,0.4995 c -0.894064,1.0262 -2.15668,2.3152 -3.602894,2.3938 -2.603102,0.1314 -2.761014,-2.0516 -2.235229,-3.9188 0.604605,-2.2615 1.314801,-4.4708 1.998769,-6.7325 -0.05226,0.1058 -0.631106,0.7102 -1.893653,0.6839 -0.578852,2.3672 -2.23523,5.3391 -4.181,7.5736 -0.290069,0.3159 -0.525784,0.5789 -0.815312,0.8683 0,0 -0.447235,-0.1051 -0.394373,-0.3682 0.341578,-0.3158 0.630292,-0.6575 0.919616,-0.9996 2.919739,-3.2342 3.918717,-7.0998 3.97158,-7.1792 -1.867153,-0.4995 -2.077928,-3.182 -1.394163,-5.1014 0.658146,-1.92 2.814013,-1.0524 2.26227,0.4732 -1.919948,5.2856 1.130594,4.4439 1.840858,2.6031 0.525784,-1.3411 2.603103,-0.7096 2.050818,1.1047 z" />
    <path
       id="path10"
       style="fill:#ffffff;fill-rule:evenodd"
       d="m 69.773142,1036.6877 c 0.315827,0.7889 -0.02575,1.7879 -0.736018,2.2873 -0.710264,0.4738 -1.55133,0.2108 -1.867154,-0.5515 -0.315823,-0.7891 0,-1.7886 0.736018,-2.2617 0.710196,-0.4736 1.552075,-0.2366 1.867154,0.5259 z m -1.524831,4.9177 c -0.183665,0.5786 -0.815312,2.7874 -1.288505,4.3917 -0.39444,1.4726 -1.972812,5.8909 0.288714,5.2863 0.894675,-0.2366 1.630693,-1.1312 2.235297,-1.815 l 0.289325,0.4995 c -0.893929,1.0262 -2.156478,2.3144 -3.602149,2.393 -3.024653,0.1579 -2.446005,-3.2077 -2.130723,-4.3387 0.631647,-2.2352 1.34191,-4.5496 1.998565,-6.7848 0.500235,-1.6835 2.577349,-0.921 2.209476,0.368 z" />
    <path
       id="path12"
       style="fill:#ffffff;fill-rule:evenodd"
       d="m 72.324597,1050.9674 c 0.683905,0.6839 1.946448,0.105 2.814017,-1.5249 0.4736,-0.8947 0.788812,-2.0514 1.104703,-3.1825 0.867369,-2.972 1.156887,-6.0488 -0.315891,-5.7588 -2.971179,0.5518 -5.443482,8.5991 -3.602829,10.4662 z m 7.626454,-9.7565 c -0.130801,0.3678 -0.236456,0.7623 -0.31582,1.1303 -0.551536,1.92 -1.078129,3.8665 -1.603376,5.7865 -0.420938,1.6036 -0.658142,3.8131 0.788813,3.2342 0.867425,-0.3416 1.629877,-1.2097 2.261587,-1.8937 l 0.262968,0.4995 c -0.894678,0.9997 -2.130119,2.3146 -3.577144,2.3938 -1.02473,0.052 -1.9457,-0.027 -2.498056,-1.7621 -0.05226,-0.1314 -0.02573,-0.053 -0.0793,-0.2107 -0.762511,1.2097 -2.182226,2.1565 -3.523595,1.92 -0.946723,-0.1579 -1.577626,-0.8418 -1.919949,-1.8143 -0.05226,-0.1323 -0.07855,-0.263 -0.130803,-0.3945 -1.026087,-3.8399 1.70863,-11.2557 5.837923,-10.809 1.183389,0.1057 2.288022,1.1047 1.972202,2.8931 l 0.105855,-0.3423 0.314474,-1.1303 c 0.447848,-1.6572 2.393745,-0.5524 2.104216,0.4995 z" />
    <path
       id="path14"
       style="fill:#ffffff;fill-rule:evenodd"
       d="m 82.924813,1038.8179 c -1.682952,1.0253 -1.815109,0.1837 -1.288506,-0.1052 0.867559,-0.4471 2.077319,-1.2889 2.366638,-2.2879 0.0788,-0.263 0.02653,-0.4474 -0.15791,-0.631 -0.89393,-0.9997 -0.763129,-2.1301 0.210913,-2.9983 0.605149,-0.5523 1.762106,-0.6839 2.024316,0.2894 0.289329,1.0255 -0.341574,2.5768 -0.89393,3.4714 -0.578848,0.9203 -1.341299,1.7093 -2.261521,2.2616 z" />
    <path
       id="path16"
       style="fill:#ffffff;fill-rule:evenodd"
       d="m 85.695197,1038.2511 c 1.762037,-1.7883 4.602486,0 1.945701,3.5767 -0.183664,0.2365 1.104703,3.7342 0.684513,6.5215 -0.89386,5.9696 -8.705407,3.4715 -6.890507,3.4715 6.91626,-0.026 4.208039,-7.968 4.208039,-7.7838 -0.60515,1.2355 -2.551658,3.9708 -3.944264,5.5752 -0.290077,0.3158 -0.526603,0.5786 -0.816131,0.8674 0,0 -0.44723,-0.1314 -0.394367,-0.3945 0.341574,-0.315 0.630903,-0.6309 0.920421,-0.9732 2.209277,-2.4717 3.787102,-5.2591 3.945022,-5.8637 -0.736768,-2.4987 -0.499494,-4.1295 0.341573,-4.9971 z" />
    <path
       id="path50"
       style="fill:#ffffff;fill-rule:evenodd"
       d="m 1.652189,1045.64 c 0,0.4383 -0.3556748,0.7941 -0.79429242,0.7941 -0.43924465,0 -0.79498139,-0.3558 -0.79498139,-0.7941 0,-0.4387 0.35573674,-0.7946 0.79498139,-0.7946 0.43861762,0 0.79429242,0.3559 0.79429242,0.7946 z" />
    <path
       id="path52"
       style="fill:#ffffff;fill-rule:evenodd"
       d="m 11.210346,1052.313 c -0.09907,0.1657 -2.7091189,-0.3507 -5.3555013,-1.9399 -2.645819,-1.5897 -4.3253761,-3.6501 -4.2261206,-3.8152 0.099066,-0.1655 2.1444613,1.6206 4.7907826,3.2093 2.6458166,1.5892 4.8899063,2.3809 4.7908393,2.5458 z" />
    <path
       id="path54"
       style="fill:#ffffff;fill-rule:evenodd"
       d="m 3.571162,1046.2707 c 0,0 -1.2447667,-9.669 6.2055699,-13.8812 0,0 3.6558121,7.3393 -2.9682353,13.4841 0,0 5.4339264,-2.0447 9.9236184,1.7127 0,0 -3.606372,4.8472 -10.1646041,1.6626 0,0 2.8716792,0.5176 5.4127211,-1.2697 0,0 -2.6338966,-1.9689 -6.8662875,-0.9293 0,0 3.2862709,-3.9092 2.5416079,-8.7209 0,0 -3.832237,2.423 -4.0843904,7.9417 z" />
  </g>
</svg>
