<?xml version="1.0" standalone="no"?>
<!DOCTYPE svg PUBLIC "-//W3C//DTD SVG 20010904//EN"
 "http://www.w3.org/TR/2001/REC-SVG-20010904/DTD/svg10.dtd">
<svg version="1.0" xmlns="http://www.w3.org/2000/svg"
 width="449.000000pt" height="449.000000pt" viewBox="0 0 449.000000 449.000000"
 preserveAspectRatio="xMidYMid meet">
<metadata>
Created by potrace 1.11, written by Peter Selinger 2001-2013
</metadata>
<g transform="translate(0.000000,449.000000) scale(0.100000,-0.100000)"
fill="#000000" stroke="none">
<path d="M896 4475 c-56 -19 -87 -45 -119 -97 -27 -44 -29 -51 -30 -182 l-1
-136 -32 0 c-50 0 -157 -37 -205 -71 -90 -64 -148 -145 -173 -244 -14 -52 -16
-249 -16 -1701 0 -1057 4 -1660 10 -1694 29 -154 153 -286 307 -327 51 -14
239 -16 1583 -17 839 -1 1550 2 1580 7 161 22 312 163 349 327 7 30 11 601 11
1702 0 1613 -1 1658 -19 1719 -26 83 -81 160 -153 214 -62 46 -163 85 -223 85
l-32 0 0 133 c-1 147 -11 184 -71 240 -73 70 -213 68 -291 -4 -51 -47 -63 -94
-64 -236 l-1 -133 -1067 0 -1066 0 -1 128 c0 134 -7 165 -48 220 -49 63 -152
94 -228 67z"/>
</g>
</svg>
